<svg xmlns="http://www.w3.org/2000/svg" width="55.084" height="54.235" viewBox="0 0 55.084 54.235">
  <path id="github" d="M30.542,3a27.526,27.526,0,0,0-6.674,54.235,4.019,4.019,0,0,1-.211-1.338V51.189H20.2a4.792,4.792,0,0,1-4.372-2.316c-.9-1.673-1.058-4.232-3.294-5.8-.663-.521-.158-1.115.606-1.035a7.217,7.217,0,0,1,3.684,2.8c1.1,1.439,1.613,1.765,3.663,1.765a26.315,26.315,0,0,0,3.881-.278,8.64,8.64,0,0,1,3.645-4.5c-9.171-.943-13.548-5.506-13.548-11.7a11.257,11.257,0,0,1,3.066-7.42c-.633-2.157-1.43-6.557.243-8.233a9.587,9.587,0,0,1,7.221,3.4,20.826,20.826,0,0,1,13.395,0,9.58,9.58,0,0,1,7.225-3.4c1.68,1.678.874,6.1.234,8.249a11.253,11.253,0,0,1,3.048,7.4c0,6.19-4.37,10.751-13.528,11.7,2.52,1.315,4.359,5.01,4.359,7.794V55.9a4.038,4.038,0,0,1-.08.615A27.527,27.527,0,0,0,30.542,3Z" transform="translate(-3 -3)" fill="#ececec"/>
</svg>
