<svg xmlns="http://www.w3.org/2000/svg" width="54.235" height="54.235" viewBox="0 0 54.235 54.235">
  <path id="linkedin" d="M53.3,4H8.93A4.929,4.929,0,0,0,4,8.93V53.3a4.929,4.929,0,0,0,4.93,4.93H53.3a4.929,4.929,0,0,0,4.93-4.93V8.93A4.929,4.929,0,0,0,53.3,4ZM21.143,48.374H13.871v-23.4h7.272Zm-3.71-26.745a4.239,4.239,0,1,1,4.238-4.24A4.24,4.24,0,0,1,17.433,21.629ZM48.384,48.374H41.116V36.994c0-2.714-.049-6.2-3.779-6.2-3.784,0-4.366,2.956-4.366,6.008V48.374H25.7v-23.4H32.68v3.2h.1a7.642,7.642,0,0,1,6.88-3.779c7.364,0,8.724,4.847,8.724,11.148Z" transform="translate(-4 -4)" fill="#ececec"/>
</svg>
