<svg xmlns="http://www.w3.org/2000/svg" width="67.343" height="50.49" viewBox="0 0 67.343 50.49">
  <g id="mail" transform="translate(0 -31.643)">
    <path id="Path_41" data-name="Path 41" d="M56.528,82.133H10.816A10.828,10.828,0,0,1,0,71.317V42.459A10.829,10.829,0,0,1,10.816,31.643H56.528A10.828,10.828,0,0,1,67.343,42.459V71.317A10.828,10.828,0,0,1,56.528,82.133ZM10.816,34.806a7.662,7.662,0,0,0-7.653,7.653V71.317a7.662,7.662,0,0,0,7.653,7.654H56.528a7.662,7.662,0,0,0,7.653-7.654V42.459a7.662,7.662,0,0,0-7.653-7.653Z" transform="translate(0 0)" fill="#fff"/>
    <path id="Path_42" data-name="Path 42" d="M29.68,65.166,53.933,88.8c1.507,1.468,3.82-.84,2.311-2.311L31.991,62.856c-1.507-1.469-3.82.84-2.311,2.31Z" transform="translate(-21.417 -22.556)" fill="#fff"/>
    <path id="Path_43" data-name="Path 43" d="M123.069,88.8l24.252-23.631c1.508-1.47-.8-3.779-2.311-2.311L120.759,86.488c-1.508,1.47.8,3.779,2.311,2.311Z" transform="translate(-88.243 -22.557)" fill="#fff"/>
    <path id="Path_44" data-name="Path 44" d="M169.315,139.082l-16.138-15.3c-1.526-1.446-3.84.86-2.311,2.311L167,141.392c1.526,1.446,3.84-.861,2.311-2.311Z" transform="translate(-110.325 -67.264)" fill="#fff"/>
    <path id="Path_45" data-name="Path 45" d="M32.845,141.389l16.138-15.3c1.529-1.45-.784-3.758-2.311-2.311l-16.138,15.3c-1.529,1.45.784,3.758,2.311,2.311Z" transform="translate(-22.036 -67.261)" fill="#fff"/>
  </g>
</svg>
