<svg xmlns="http://www.w3.org/2000/svg" width="54.235" height="54.235" viewBox="0 0 54.235 54.235">
  <path id="telegram" d="M29.117,2A27.117,27.117,0,1,1,2,29.117,27.117,27.117,0,0,1,29.117,2Zm9.354,38.171c.5-1.53,2.836-16.782,3.124-19.787a1.618,1.618,0,0,0-.764-1.785,3.97,3.97,0,0,0-2.861.258c-1.606.579-22.135,9.3-23.321,9.8-1.125.478-2.188,1-2.188,1.753,0,.531.315.829,1.183,1.139.9.322,3.177,1.012,4.52,1.382a4.885,4.885,0,0,0,3.591-.466c.875-.544,10.971-7.3,11.7-7.891s1.3.166.71.759-7.522,7.318-8.436,8.25a1.711,1.711,0,0,0,.422,2.772c.85.535,6.963,4.636,7.884,5.294a4.687,4.687,0,0,0,2.709.956C37.6,42.6,38.046,41.478,38.472,40.171Z" transform="translate(-2 -2)" fill="#ececec"/>
</svg>
